<svg width="33" height="33" viewBox="0 0 33 33" fill="none" xmlns="http://www.w3.org/2000/svg">
<path d="M32.9866 8.42248C32.9866 7.4077 32.901 6.39704 32.6587 5.40907C32.2235 3.60949 31.1974 2.23479 29.6619 1.22516C28.872 0.709522 28.0027 0.392918 27.0787 0.225851C26.3692 0.101702 25.651 0.0334283 24.9307 0.0216569C24.8771 0.0165005 24.8183 0.00515641 24.7585 0H8.22706C8.01772 0.0165005 7.80838 0.0268133 7.59904 0.0371262C6.57298 0.0959092 5.55311 0.203163 4.58583 0.589893C2.74923 1.31488 1.42205 2.58233 0.648636 4.40873C0.380519 5.02647 0.24543 5.68133 0.149527 6.34754C0.0690916 6.88484 0.0257804 7.42729 0.0103122 7.96975C0.0103122 8.01306 0 8.05535 0 8.09866V24.9055L0.0319678 25.4861C0.102091 26.6091 0.246461 27.7209 0.71979 28.7521C1.61179 30.7023 3.11015 31.9852 5.16743 32.603C5.74182 32.7803 6.34405 32.8608 6.94525 32.9144C7.70835 32.9897 8.47042 33 9.23352 33H24.4007C25.1205 33 25.8403 32.9515 26.56 32.8608C27.6934 32.7154 28.7565 32.3823 29.7187 31.7491C30.8575 31.0112 31.7555 29.9562 32.3019 28.714C32.5597 28.1334 32.7051 27.5167 32.8123 26.8927C32.968 25.9636 33 25.023 33 24.0835C32.9948 18.8622 33 13.6418 32.9948 8.42042L32.9866 8.42248ZM24.1563 13.9058V21.759C24.1563 22.3334 24.0758 22.8976 23.818 23.4184C23.421 24.2289 22.7765 24.7394 21.9113 24.9869C21.432 25.1243 20.938 25.2036 20.4398 25.2231C19.8133 25.2601 19.195 25.0655 18.7027 24.6762C18.2104 24.287 17.8784 23.7302 17.7699 23.1121C17.6706 22.5559 17.7565 21.9824 18.0145 21.4798C18.2725 20.9771 18.6883 20.5731 19.1982 20.3297C19.6385 20.1152 20.117 19.9862 20.5945 19.8893C21.1152 19.7769 21.636 19.6748 22.1516 19.5562C22.5331 19.4706 22.7796 19.2396 22.8549 18.8467C22.8765 18.7611 22.8817 18.6693 22.8817 18.5837V11.0966C22.8798 11.0112 22.8674 10.9263 22.8446 10.8439C22.7909 10.6346 22.6404 10.5108 22.4259 10.5211C22.2052 10.5315 21.9907 10.5696 21.7762 10.6129C20.7285 10.8171 19.6818 11.0265 18.6393 11.241L13.5533 12.2671C13.5316 12.2723 13.5048 12.2836 13.4832 12.2836C13.1016 12.3909 12.9676 12.5631 12.9511 12.9601C12.9459 13.0189 12.9511 13.0787 12.9511 13.1375C12.9459 16.715 12.9511 20.2925 12.9459 23.869C12.9459 24.4496 12.8809 25.0189 12.651 25.5552C12.2694 26.4359 11.593 26.9897 10.6803 27.2527C10.1978 27.3931 9.69966 27.4724 9.19743 27.4888C7.8816 27.5373 6.78541 26.6617 6.56061 25.3675C6.36674 24.2506 6.87719 23.0471 8.14456 22.5098C8.63851 22.3056 9.14896 22.1932 9.66973 22.0859L10.8515 21.8446C11.3774 21.7322 11.6517 21.3991 11.6785 20.8618V8.44311C11.6785 8.27088 11.7002 8.09969 11.7373 7.93262C11.8343 7.54074 12.1137 7.31488 12.4891 7.2231C12.8387 7.13132 13.1986 7.06738 13.5523 6.99209C14.5618 6.7879 15.5662 6.58371 16.5758 6.38467L19.6963 5.75043C20.6202 5.56789 21.538 5.3802 22.462 5.19766C22.7631 5.13888 23.0694 5.07391 23.3746 5.05225C23.7984 5.01513 24.0944 5.28326 24.1377 5.7133C24.148 5.8154 24.1542 5.9175 24.1542 6.01959V13.8996L24.1563 13.9058Z" fill="#969696"/>
</svg>
