<svg width="28" height="28" viewBox="0 0 28 28" fill="none" xmlns="http://www.w3.org/2000/svg">
<path d="M14 25.6667L13.7083 22.1667H13.4167C10.6556 22.1667 8.3125 21.2042 6.3875 19.2792C4.4625 17.3542 3.5 15.0111 3.5 12.25C3.5 9.4889 4.4625 7.14584 6.3875 5.22084C8.3125 3.29584 10.6556 2.33334 13.4167 2.33334C14.7972 2.33334 16.0852 2.59079 17.2807 3.10568C18.4769 3.62134 19.5273 4.33107 20.4318 5.23484C21.3356 6.1394 22.0449 7.1894 22.5598 8.38484C23.0755 9.58107 23.3333 10.8695 23.3333 12.25C23.3333 13.7083 23.0953 15.1083 22.6193 16.45C22.1426 17.7917 21.4912 19.0361 20.6652 20.1833C19.8384 21.3306 18.8564 22.3708 17.7193 23.3042C16.5814 24.2375 15.3417 25.025 14 25.6667ZM13.3875 18.6375C13.7181 18.6375 14 18.5208 14.2333 18.2875C14.4667 18.0542 14.5833 17.7722 14.5833 17.4417C14.5833 17.1111 14.4667 16.8292 14.2333 16.5958C14 16.3625 13.7181 16.2458 13.3875 16.2458C13.0569 16.2458 12.775 16.3625 12.5417 16.5958C12.3083 16.8292 12.1917 17.1111 12.1917 17.4417C12.1917 17.7722 12.3083 18.0542 12.5417 18.2875C12.775 18.5208 13.0569 18.6375 13.3875 18.6375ZM12.5417 14.9333H14.2917C14.2917 14.35 14.35 13.9417 14.4667 13.7083C14.5833 13.475 14.9528 13.0472 15.575 12.425C15.925 12.075 16.2167 11.6958 16.45 11.2875C16.6833 10.8792 16.8 10.4417 16.8 9.97501C16.8 8.98334 16.4648 8.2394 15.7943 7.74318C15.1231 7.24773 14.3306 7.00001 13.4167 7.00001C12.5611 7.00001 11.8417 7.23801 11.2583 7.71401C10.675 8.19079 10.2667 8.76946 10.0333 9.45001L11.6667 10.0917C11.7639 9.76112 11.9486 9.43523 12.2208 9.11401C12.4931 8.79357 12.8917 8.63334 13.4167 8.63334C13.9417 8.63334 14.3356 8.77918 14.5985 9.07084C14.8606 9.36251 14.9917 9.68334 14.9917 10.0333C14.9917 10.3639 14.8944 10.6602 14.7 10.9223C14.5056 11.1852 14.2722 11.4528 14 11.725C13.3194 12.3083 12.9064 12.77 12.761 13.1098C12.6148 13.4505 12.5417 14.0583 12.5417 14.9333Z" fill="#A9A9A9"/>
</svg>
