<svg width="33" height="33" viewBox="0 0 33 33" fill="none" xmlns="http://www.w3.org/2000/svg">
<path d="M0 29.7326H6.01532V33H0V29.7326ZM0 25.4838H6.01532V28.7512H0V25.4838ZM0 21.238H6.01532V24.5054H0V21.238ZM0 16.9923H6.01532V20.2596H0V16.9923ZM0 12.7434H6.01532V16.0108H0V12.7434ZM6.74576 29.7326H12.7627V33H6.74576V29.7326ZM6.74576 25.4838H12.7627V28.7512H6.74576V25.4838ZM6.74576 21.238H12.7627V24.5054H6.74576V21.238ZM13.4915 29.7326H19.5085V33H13.4915V29.7326ZM13.4915 25.4838H19.5085V28.7512H13.4915V25.4838ZM13.4915 21.238H19.5085V24.5054H13.4915V21.238ZM13.4915 16.9923H19.5085V20.2596H13.4915V16.9923ZM13.4915 12.7434H19.5085V16.0108H13.4915V12.7434ZM13.4915 8.49767H19.5085V11.7651H13.4915V8.49767ZM13.4915 4.24884H19.5085V7.51622H13.4915V4.24884ZM20.2373 29.7326H26.2542V33H20.2373V29.7326ZM20.2373 25.4838H26.2542V28.7512H20.2373V25.4838ZM20.2373 21.238H26.2542V24.5054H20.2373V21.238ZM20.2373 16.9923H26.2542V20.2596H20.2373V16.9923ZM20.2373 12.7434H26.2542V16.0108H20.2373V12.7434ZM26.983 29.7326H33V33H26.983V29.7326ZM26.983 25.4838H33V28.7512H26.983V25.4838ZM26.983 21.238H33V24.5054H26.983V21.238ZM26.983 16.9923H33V20.2596H26.983V16.9923ZM26.983 12.7434H33V16.0108H26.983V12.7434ZM26.983 8.49767H33V11.7651H26.983V8.49767ZM26.983 4.24884H33V7.51622H26.983V4.24884ZM26.983 0H33V3.26739H26.983V0Z" fill="#969696"/>
</svg>
