<svg width="33" height="33" viewBox="0 0 33 33" fill="none" xmlns="http://www.w3.org/2000/svg">
<path d="M21.78 16.5C21.78 17.5443 21.4703 18.5651 20.8902 19.4334C20.31 20.3017 19.4854 20.9785 18.5206 21.3781C17.5558 21.7777 16.4941 21.8823 15.4699 21.6785C14.4457 21.4748 13.5049 20.9719 12.7665 20.2335C12.0281 19.4951 11.5252 18.5543 11.3215 17.5301C11.1177 16.5059 11.2223 15.4442 11.6219 14.4794C12.0215 13.5146 12.6983 12.69 13.5666 12.1098C14.4349 11.5297 15.4557 11.22 16.5 11.22C17.899 11.2244 19.2395 11.782 20.2287 12.7713C21.218 13.7605 21.7757 15.101 21.78 16.5ZM33 9.24V23.76C33 26.2106 32.0265 28.5608 30.2937 30.2937C28.5608 32.0265 26.2106 33 23.76 33H9.24C6.7894 33 4.43917 32.0265 2.70633 30.2937C0.973497 28.5608 0 26.2106 0 23.76V9.24C0 6.7894 0.973497 4.43917 2.70633 2.70633C4.43917 0.973497 6.7894 0 9.24 0H23.76C26.2106 0 28.5608 0.973497 30.2937 2.70633C32.0265 4.43917 33 6.7894 33 9.24ZM24.42 16.5C24.42 14.9336 23.9555 13.4023 23.0852 12.0999C22.215 10.7974 20.978 9.78232 19.5309 9.18287C18.0837 8.58343 16.4912 8.42659 14.9549 8.73218C13.4186 9.03778 12.0073 9.79208 10.8997 10.8997C9.79208 12.0073 9.03778 13.4186 8.73218 14.9549C8.42659 16.4912 8.58343 18.0837 9.18287 19.5309C9.78232 20.978 10.7974 22.215 12.0999 23.0852C13.4023 23.9555 14.9336 24.42 16.5 24.42C18.6005 24.42 20.615 23.5856 22.1003 22.1003C23.5856 20.615 24.42 18.6005 24.42 16.5ZM27.06 7.92C27.06 7.52839 26.9439 7.14558 26.7263 6.81997C26.5087 6.49436 26.1995 6.24058 25.8377 6.09072C25.4759 5.94086 25.0778 5.90165 24.6937 5.97804C24.3096 6.05444 23.9568 6.24302 23.6799 6.51993C23.403 6.79684 23.2144 7.14964 23.138 7.53372C23.0616 7.9178 23.1009 8.31592 23.2507 8.67771C23.4006 9.03951 23.6544 9.34875 23.98 9.56631C24.3056 9.78388 24.6884 9.9 25.08 9.9C25.6051 9.9 26.1087 9.69139 26.4801 9.32007C26.8514 8.94875 27.06 8.44513 27.06 7.92Z" fill="#969696"/>
</svg>
