<svg width="28" height="28" viewBox="0 0 28 28" fill="none" xmlns="http://www.w3.org/2000/svg">
<path d="M14.5833 17.5C15.3999 17.5 16.0902 17.2181 16.6541 16.6542C17.218 16.0903 17.4999 15.4 17.4999 14.5833V8.16668H20.9999V5.83334H16.3333V12.25C16.0805 12.0556 15.8083 11.9097 15.5166 11.8125C15.2249 11.7153 14.9138 11.6667 14.5833 11.6667C13.7666 11.6667 13.0763 11.9486 12.5124 12.5125C11.9485 13.0764 11.6666 13.7667 11.6666 14.5833C11.6666 15.4 11.9485 16.0903 12.5124 16.6542C13.0763 17.2181 13.7666 17.5 14.5833 17.5ZM9.33325 21C8.69159 21 8.14247 20.7717 7.68592 20.3152C7.22859 19.8578 6.99992 19.3083 6.99992 18.6667V4.66668C6.99992 4.02501 7.22859 3.47551 7.68592 3.01818C8.14247 2.56162 8.69159 2.33334 9.33325 2.33334H23.3333C23.9749 2.33334 24.5244 2.56162 24.9818 3.01818C25.4383 3.47551 25.6666 4.02501 25.6666 4.66668V18.6667C25.6666 19.3083 25.4383 19.8578 24.9818 20.3152C24.5244 20.7717 23.9749 21 23.3333 21H9.33325ZM4.66659 25.6667C4.02492 25.6667 3.47581 25.4384 3.01925 24.9818C2.56192 24.5245 2.33325 23.975 2.33325 23.3333V7.00001H4.66659V23.3333H20.9999V25.6667H4.66659Z" fill="#A9A9A9"/>
</svg>
