<svg width="28" height="28" viewBox="0 0 28 28" fill="none" xmlns="http://www.w3.org/2000/svg">
<path d="M14.0001 14C12.7167 14 11.6181 13.543 10.7042 12.6292C9.79036 11.7153 9.33341 10.6167 9.33341 9.33332C9.33341 8.04999 9.79036 6.95138 10.7042 6.03749C11.6181 5.1236 12.7167 4.66666 14.0001 4.66666C15.2834 4.66666 16.382 5.1236 17.2959 6.03749C18.2098 6.95138 18.6667 8.04999 18.6667 9.33332C18.6667 10.6167 18.2098 11.7153 17.2959 12.6292C16.382 13.543 15.2834 14 14.0001 14ZM4.66675 23.3333V20.0667C4.66675 19.4055 4.83708 18.7977 5.17775 18.2432C5.51764 17.6894 5.96953 17.2667 6.53341 16.975C7.73897 16.3722 8.96397 15.9199 10.2084 15.6182C11.4529 15.3172 12.7167 15.1667 14.0001 15.1667C15.2834 15.1667 16.5473 15.3172 17.7917 15.6182C19.0362 15.9199 20.2612 16.3722 21.4667 16.975C22.0306 17.2667 22.4825 17.6894 22.8224 18.2432C23.1631 18.7977 23.3334 19.4055 23.3334 20.0667V23.3333H4.66675Z" fill="#A9A9A9"/>
</svg>
