<svg width="33" height="33" viewBox="0 0 33 33" fill="none" xmlns="http://www.w3.org/2000/svg">
<path d="M26.235 14.685C20.955 11.55 12.1275 11.22 7.095 12.7875C6.27 13.035 5.445 12.54 5.1975 11.7975C4.95 10.9725 5.445 10.1475 6.1875 9.9C12.045 8.1675 21.6975 8.4975 27.8025 12.1275C28.545 12.54 28.7925 13.53 28.38 14.2725C27.9675 14.85 26.9775 15.0975 26.235 14.685ZM26.07 19.305C25.6575 19.8825 24.915 20.13 24.3375 19.7175C19.8825 16.995 13.1175 16.17 7.92 17.82C7.26 17.985 6.5175 17.655 6.3525 16.995C6.1875 16.335 6.5175 15.5925 7.1775 15.4275C13.2 13.6125 20.625 14.52 25.74 17.655C26.235 17.9025 26.4825 18.7275 26.07 19.305ZM24.09 23.8425C23.76 24.3375 23.1825 24.5025 22.6875 24.1725C18.81 21.78 13.9425 21.285 8.1675 22.605C7.59 22.77 7.095 22.3575 6.93 21.8625C6.765 21.285 7.1775 20.79 7.6725 20.625C13.9425 19.2225 19.3875 19.8 23.6775 22.44C24.255 22.6875 24.3375 23.3475 24.09 23.8425ZM16.5 0C14.3332 0 12.1876 0.426785 10.1857 1.25599C8.18385 2.08519 6.3649 3.30057 4.83274 4.83274C1.73839 7.92709 0 12.1239 0 16.5C0 20.8761 1.73839 25.0729 4.83274 28.1673C6.3649 29.6994 8.18385 30.9148 10.1857 31.744C12.1876 32.5732 14.3332 33 16.5 33C20.8761 33 25.0729 31.2616 28.1673 28.1673C31.2616 25.0729 33 20.8761 33 16.5C33 14.3332 32.5732 12.1876 31.744 10.1857C30.9148 8.18385 29.6994 6.3649 28.1673 4.83274C26.6351 3.30057 24.8161 2.08519 22.8143 1.25599C20.8124 0.426785 18.6668 0 16.5 0Z" fill="#969696"/>
</svg>
