<svg width="28" height="28" viewBox="0 0 28 28" fill="none" xmlns="http://www.w3.org/2000/svg">
<path d="M3.50008 21C2.85841 21 2.3093 20.7717 1.85275 20.3152C1.39541 19.8578 1.16675 19.3083 1.16675 18.6667C1.16675 18.025 1.39541 17.4755 1.85275 17.0182C2.3093 16.5616 2.85841 16.3333 3.50008 16.3333H3.80691C3.89403 16.3333 3.98619 16.3528 4.08341 16.3917L9.39175 11.0833C9.35286 10.9861 9.33341 10.8936 9.33341 10.8057V10.5C9.33341 9.85833 9.56208 9.30883 10.0194 8.8515C10.476 8.39494 11.0251 8.16667 11.6667 8.16667C12.3084 8.16667 12.8579 8.39494 13.3152 8.8515C13.7718 9.30883 14.0001 9.85833 14.0001 10.5C14.0001 10.5389 13.9806 10.7333 13.9417 11.0833L16.9167 14.0583C17.014 14.0194 17.1065 14 17.1944 14H17.8057C17.8936 14 17.9862 14.0194 18.0834 14.0583L22.2251 9.91667C22.1862 9.81944 22.1667 9.72689 22.1667 9.639V9.33333C22.1667 8.69167 22.395 8.14256 22.8516 7.686C23.3089 7.22867 23.8584 7 24.5001 7C25.1417 7 25.6912 7.22867 26.1486 7.686C26.6051 8.14256 26.8334 8.69167 26.8334 9.33333C26.8334 9.975 26.6051 10.5241 26.1486 10.9807C25.6912 11.438 25.1417 11.6667 24.5001 11.6667H24.1944C24.1065 11.6667 24.014 11.6472 23.9167 11.6083L19.7751 15.75C19.814 15.8472 19.8334 15.9398 19.8334 16.0277V16.3333C19.8334 16.975 19.6051 17.5241 19.1486 17.9807C18.6912 18.438 18.1417 18.6667 17.5001 18.6667C16.8584 18.6667 16.3093 18.438 15.8527 17.9807C15.3954 17.5241 15.1667 16.975 15.1667 16.3333V16.0277C15.1667 15.9398 15.1862 15.8472 15.2251 15.75L12.2501 12.775C12.1529 12.8139 12.0603 12.8333 11.9724 12.8333H11.6667C11.6279 12.8333 11.4334 12.8139 11.0834 12.775L5.77508 18.0833C5.81397 18.1806 5.83341 18.2731 5.83341 18.361V18.6667C5.83341 19.3083 5.60475 19.8578 5.14741 20.3152C4.69086 20.7717 4.14175 21 3.50008 21Z" fill="#A9A9A9"/>
</svg>
