<svg width="43" height="31" viewBox="0 0 43 31" fill="none" xmlns="http://www.w3.org/2000/svg">
<path d="M21.6384 0H21.8776C24.0869 0.008063 35.281 0.0886935 38.2993 0.900369C39.2117 1.14809 40.0432 1.63094 40.7105 2.30067C41.3779 2.97039 41.8578 3.80354 42.1023 4.71686C42.3738 5.73817 42.5646 7.09007 42.6936 8.48497L42.7205 8.76449L42.7796 9.46328L42.8011 9.7428C42.9758 12.1993 42.9973 14.5 43 15.0026V15.2041C42.9973 15.7255 42.9731 18.1821 42.7796 20.7407L42.7581 21.0229L42.7339 21.3025C42.5995 22.8398 42.4007 24.3664 42.1023 25.4898C41.8586 26.4035 41.3789 27.2371 40.7114 27.9069C40.0439 28.5768 39.2121 29.0594 38.2993 29.3063C35.1816 30.1449 23.3316 30.204 21.6895 30.2067H21.3078C20.4773 30.2067 17.0425 30.1906 13.441 30.0669L12.9841 30.0508L12.7503 30.0401L12.2907 30.0213L11.8311 30.0024C8.8478 29.8707 6.00694 29.6584 4.69804 29.3036C3.78555 29.0569 2.95392 28.5747 2.28646 27.9054C1.61901 27.236 1.13916 26.403 0.894993 25.4898C0.596662 24.3691 0.397775 22.8398 0.263391 21.3025L0.24189 21.0203L0.220389 20.7407C0.0877459 18.9196 0.0142443 17.0946 0 15.2686L0 14.9381C0.00537534 14.3602 0.0268767 12.3633 0.172011 10.1594L0.190824 9.88256L0.198887 9.7428L0.220389 9.46328L0.279517 8.76449L0.306394 8.48497C0.435402 7.09007 0.626227 5.73548 0.897681 4.71686C1.14144 3.80318 1.6211 2.96963 2.28858 2.29979C2.95607 1.62995 3.78792 1.14734 4.70073 0.900369C6.00963 0.550972 8.85049 0.335958 11.8338 0.201575L12.2907 0.182761L12.753 0.166636L12.9841 0.158573L13.4437 0.139759C16.0016 0.0574482 18.5605 0.0117528 21.1197 0.00268779H21.6384V0ZM17.2011 8.62741V21.5766L28.3737 15.1047L17.2011 8.62741Z" fill="#969696"/>
</svg>
